<svg width="66" height="70" viewBox="0 0 66 70" fill="none" xmlns="http://www.w3.org/2000/svg">
<path d="M32.8988 0.0883789L0.219238 11.6519L5.38348 54.7008L32.9333 69.9253L60.6255 54.4945L65.7877 11.4471L32.8988 0.0883789Z" fill="#D2CCCC"/>
<path d="M62.5279 13.9352L32.8223 3.75V66.2881L57.7169 52.4352L62.5277 13.9352H62.5279Z" fill="#A6120D"/>
<path d="M3.88623 14.1188L8.31158 52.6193L32.8218 66.2881V3.74902L3.88649 14.1186L3.88623 14.1188Z" fill="#DD1B16"/>
<path d="M40.9992 37.042L32.8222 40.8867H24.2038L20.1525 51.0753L12.6172 51.2153L32.8222 6.021L40.9992 37.0422V37.042ZM40.2088 35.1064L32.8766 20.5116L26.8621 34.8552H32.822L40.2088 35.1066V35.1064Z" fill="#F2F2F2"/>
<path d="M32.8218 6.02051L32.8759 20.5114L39.7002 34.8661H32.8372L32.8218 40.8771L42.3119 40.8862L46.7473 51.2166L53.9575 51.3509L32.8218 6.02051V6.02051Z" fill="#B3B3B3"/>
</svg>
