<svg width="71" height="86" viewBox="0 0 71 86" fill="none" xmlns="http://www.w3.org/2000/svg">
<g clip-path="url(#clip0_1534_2847)">
<path d="M3.63431 81.2672C2.19102 81.2672 1.77139 80.4101 1.77139 79.1259C1.77139 78.698 1.82409 78.2151 1.88899 77.7066C2.20516 75.4858 2.97701 74.2152 4.83993 74.2152C6.0999 74.2152 6.71421 74.79 6.71421 75.8337V76.3426H7.9642C7.97807 76.3426 7.97807 75.8742 7.97807 75.7676C7.97807 74.2424 7.07254 72.7958 4.84187 72.7958C1.81078 72.7958 0.564395 74.4752 0.105113 77.7674C0.0393828 78.2092 0 78.6216 0 79.0617C0 81.0022 0.748551 82.7672 3.42492 82.7672C5.4584 82.7672 6.66623 81.756 7.37429 80.5114L6.18005 79.6911C5.40626 80.936 4.56591 81.2672 3.63431 81.2672ZM11.8354 75.1382C9.4075 75.1382 8.35859 76.4088 8.00442 78.9376C7.96284 79.2303 7.9406 79.5255 7.93786 79.8212C7.93786 81.4533 8.68585 82.7522 10.7584 82.7522C13.1863 82.7522 14.2494 81.427 14.6035 78.9376C14.6429 78.6168 14.6693 78.3223 14.6693 78.0282C14.6698 76.3692 13.896 75.1382 11.8354 75.1382ZM12.8457 78.9384C12.5831 80.7722 12.0195 81.3342 10.9559 81.3342C10.1036 81.3342 9.68401 80.9727 9.68401 79.8888C9.68401 79.6209 9.71064 79.3002 9.76278 78.9384C10.0254 77.1188 10.5502 76.5567 11.626 76.5567C12.4921 76.5567 12.9245 76.9179 12.9245 78.0152C12.9245 78.2827 12.8979 78.5908 12.8457 78.9384ZM20.7722 72.9288L20.3659 75.3854C20.3398 75.599 20.3531 75.528 20.4325 75.7288C20.052 75.4346 19.3691 75.24 18.9099 75.24C16.7316 75.24 15.5118 76.2456 15.1186 79.0558C15.0726 79.3524 15.0507 79.6524 15.0528 79.9527C15.0528 82.0009 16.2335 82.7644 17.8207 82.7644C18.4908 82.7644 19.1464 82.7785 19.6576 82.3375L19.7882 83.17H21.0482L22.5175 72.9288H20.7722ZM19.5258 80.9456C18.9359 81.3059 18.359 81.3874 18.0049 81.3874C17.0469 81.3874 16.7846 80.8785 16.7846 80.0628C16.7846 79.7547 16.8239 79.3944 16.8769 79.0052C17.1781 76.8778 17.8476 76.5024 18.7138 76.5024C19.2773 76.5024 19.71 76.5966 20.1177 76.8246L19.5258 80.9456ZM26.3493 75.1382C23.9475 75.1382 22.8201 76.3016 22.4391 78.9376C22.3991 79.2592 22.3728 79.5672 22.3728 79.8614C22.3728 81.668 23.2786 82.7522 25.2721 82.7522C26.8205 82.7522 27.9762 82.096 28.5925 80.8915L27.2671 80.3428C26.8871 80.9312 26.3754 81.3328 25.4699 81.3328C24.4992 81.3328 24.1053 81.0664 24.1053 80.183C24.1053 80.0087 24.1186 79.7556 24.145 79.7556H28.8809C28.9475 79.0728 29.0251 78.5902 29.0251 78.19C29.0251 76.8526 28.527 75.1379 26.3493 75.1379V75.1382ZM27.2543 78.3908H24.3677C24.657 77.708 25.1415 76.6512 26.1391 76.6512C26.9129 76.6512 27.294 77.1125 27.294 77.902C27.2931 78.0358 27.2812 78.3908 27.2543 78.3908ZM34.0745 74.977L34.2317 73.6116H30.5311L30.3744 74.977H31.3451L30.2962 81.8043H29.3241L29.1677 83.17H32.8675L33.0255 81.8043H32.054L33.1032 74.977H34.0745ZM41.5932 77.0251L42.0661 75.6598H40.7934L39.8756 75.853C39.3637 75.5192 38.6681 75.2686 38.0127 75.2686C36.1357 75.2686 34.5357 76.193 34.5357 78.2943C34.5357 78.8838 34.7453 79.3596 34.9941 79.6812C34.6014 79.8948 34.26 80.2526 34.26 80.7351C34.26 80.949 34.3382 81.1679 34.4963 81.3682C33.7084 81.8507 33.2244 82.6504 33.2244 83.5864C33.2244 85.3938 35.074 85.7794 36.4909 85.7794C38.2751 85.7794 40.4012 85.3636 40.4012 83.0484C40.4012 82.2592 39.9159 81.6425 38.512 81.375L35.9798 80.8924C35.6914 80.8384 35.6256 80.7447 35.6256 80.611C35.6256 80.4101 35.7449 80.3038 35.9407 80.3038L36.1115 80.3304C36.4527 80.4104 36.8465 80.4511 37.2528 80.4511C39.0772 80.4511 40.7038 79.6478 40.7038 77.5603C40.7038 77.2656 40.6517 77.0662 40.5205 76.7445C40.7432 76.852 41.0325 77.026 41.1495 77.026H41.5932V77.0251ZM37.9858 82.5644C38.4839 82.6586 38.6542 82.8455 38.6542 83.1802C38.6542 84.2644 37.5127 84.3982 36.6865 84.3982C35.4268 84.3982 34.9547 84.091 34.9547 83.4076C34.9547 82.8051 35.1248 82.5248 35.5191 82.096L37.9858 82.5644ZM37.447 79.0592C36.6859 79.0592 36.266 78.7786 36.266 78.1088C36.266 77.1188 36.8304 76.5432 37.8144 76.5432C38.6018 76.5432 38.9826 76.8778 38.9826 77.5326C38.9826 78.5232 38.431 79.0592 37.447 79.0592ZM46.2546 75.1382C45.5196 75.1382 44.8642 75.5059 44.0502 76.161L43.9324 75.6598H42.4885L41.4784 83.1697H43.2235L43.9848 77.4746C44.4968 77.1536 45.126 76.6874 45.6641 76.6874C46.3197 76.6874 46.5566 77.0102 46.5566 77.6254C46.5566 77.7727 46.5427 78.2092 46.5164 78.3696L45.8743 83.1697H47.6196L48.2617 78.3305C48.2883 78.1043 48.3144 77.7312 48.3144 77.5176C48.3152 76.2447 47.7239 75.1382 46.2546 75.1382ZM51.6295 81.2884L51.6428 81.1045L52.4033 75.6598H49.5034L49.3206 77.0251H50.5925C50.4874 77.0251 50.4219 77.1448 50.4092 77.2526L49.8842 80.8788C49.8581 81.0534 49.8453 81.4165 49.8453 81.5628C49.8453 82.4993 50.3434 83.17 51.3663 83.17H52.2588L52.4557 81.8043H51.8918C51.6944 81.8043 51.6295 81.4488 51.6295 81.2884ZM52.7574 72.9288H51.0518C50.9467 72.9288 50.9467 72.5348 50.9339 72.6685L50.6971 74.5926C50.6835 74.7136 50.6835 74.9772 50.7886 74.9772H52.4951C52.6002 74.9772 52.6002 74.5094 52.6129 74.3878L52.8498 72.9027C52.8631 72.769 52.8631 72.9288 52.7574 72.9288ZM56.316 81.3339C55.8837 81.3339 55.6734 81.1464 55.6734 80.7456L55.6867 80.7182L56.2378 77.0251H58.2319L58.8351 75.6598H56.4212L56.8275 72.655L54.9914 73.2538L54.6628 75.6598H53.6003L53.417 77.0251H54.65C54.5322 77.708 54.4137 77.265 54.401 77.3994L53.9284 80.6375C53.9023 80.7852 53.9023 80.8921 53.9023 81.0253C53.9023 82.2968 54.8206 82.7726 55.9239 82.7726C56.9467 82.7726 57.7735 82.4679 58.4169 81.9183L57.6029 80.8972C57.1952 81.1509 56.9201 81.3339 56.316 81.3339ZM62.7191 75.1382C60.3181 75.1382 59.1899 76.3016 58.8091 78.9376C58.7697 79.2592 58.7434 79.5672 58.7434 79.8614C58.7434 81.668 59.6486 82.7522 61.6427 82.7522C63.1911 82.7522 64.3468 82.096 64.9625 80.8915L63.6376 80.3428C63.2577 80.9312 62.7454 81.3328 61.8396 81.3328C60.8695 81.3328 60.4751 81.0664 60.4751 80.183C60.4751 80.0087 60.4892 79.7556 60.5156 79.7556H65.2518C65.3172 79.0728 65.396 78.5902 65.396 78.19C65.396 76.8526 64.8976 75.1379 62.7191 75.1379V75.1382ZM63.6249 78.3908H60.7383C61.0267 77.708 61.5115 76.6512 62.5097 76.6512C63.2835 76.6512 63.6645 77.1125 63.6645 77.902C63.6637 78.0358 63.6509 78.3908 63.6249 78.3908ZM70.2248 75.1379C69.595 75.1379 69.0045 75.5062 68.4138 76.0804L68.3089 75.6598H66.8662L65.8556 83.1697H67.6139L68.3877 77.3541C68.8473 77.0738 69.372 76.8342 69.8707 76.8342C70.186 76.8342 70.4872 76.783 70.7756 76.8229L71 75.2714C70.7362 75.218 70.4739 75.1382 70.2248 75.1382V75.1379ZM25.6654 67.5496C21.6938 65.7987 17.9774 61.3488 17.9685 56.7956C17.9577 51.8314 21.0423 47.6168 24.8788 44.8471C24.4176 46.6243 24.1661 48.2499 25.3087 49.8395C26.371 51.3175 28.2314 52.0357 29.9881 51.6459C34.0928 50.7294 34.2811 46.1273 31.8477 43.4461C29.4417 40.7909 27.1142 37.7917 28.03 33.9411C28.4885 32.0109 29.6505 30.2029 31.1227 28.9105C29.9911 31.9433 33.2066 34.9343 35.3253 36.4241C39.0004 39.0089 43.0327 40.9623 46.4118 43.9923C49.9662 47.1767 52.591 51.4824 52.061 56.4763C51.4866 61.8891 47.2694 65.6536 42.539 67.5542C52.535 65.304 62.8636 57.3916 63.0752 46.0851C63.2505 36.7833 56.9939 29.6247 49.2435 25.5264L48.8386 25.3009C49.0513 25.8273 49.1209 26.2751 49.1129 26.6759C49.1822 26.3803 49.2293 26.0765 49.2427 25.7631C49.2408 26.1354 49.1931 26.5061 49.1007 26.8663L49.1129 26.6759C48.9978 27.1697 48.8039 27.6409 48.539 28.0707L48.6527 27.9459C47.1066 30.5615 42.9206 31.1295 40.8527 28.4211C37.5285 24.0645 40.9223 19.3674 41.3972 14.7539C41.9915 8.97202 38.4362 3.35895 34.0281 0C36.456 4.00557 33.2574 9.30494 30.6983 12.2676C28.217 15.1395 25.1992 17.5373 22.4599 20.1467C19.5172 22.9492 16.6883 25.9014 14.2696 29.1908C9.43218 35.7746 6.47071 44.0551 8.64702 52.2687C10.822 60.4767 17.7933 65.7017 25.6657 67.5494L25.6654 67.5496Z" fill="#EE4323"/>
</g>
<defs>
<clipPath id="clip0_1534_2847">
<rect width="71" height="86" fill="white"/>
</clipPath>
</defs>
</svg>
