<svg width="21" height="18" viewBox="0 0 21 18" fill="none" xmlns="http://www.w3.org/2000/svg">
<path d="M1 17.4773C0.7 17.4773 0.5 17.3773 0.3 17.1773C-0.1 16.7773 -0.1 16.1773 0.3 15.7773L6.3 9.77734C6.7 9.37735 7.3 9.37735 7.7 9.77734L9.9 11.9773L19.2 0.877345C19.6 0.477345 20.2 0.377345 20.6 0.777345C21 1.17734 21.1 1.77734 20.7 2.17734L10.7 14.0773C10.5 14.2773 10.3 14.3773 10 14.4773C9.7 14.4773 9.4 14.3773 9.2 14.1773L7 11.8773L1.7 17.1773C1.5 17.3773 1.3 17.4773 1 17.4773Z" fill="#27AE60"/>
</svg>
