<svg width="70" height="73" viewBox="0 0 70 73" fill="none" xmlns="http://www.w3.org/2000/svg">
<path d="M69.9605 16.5145C69.9865 16.6118 69.9998 16.7122 70 16.813V32.4822C70 32.6834 69.9476 32.8809 69.8481 33.0549C69.7486 33.229 69.6055 33.3733 69.4333 33.4734L56.4508 41.0452V56.0532C56.4508 56.4617 56.2366 56.8387 55.8869 57.0444L28.7872 72.8478C28.7252 72.8836 28.6575 72.9064 28.5898 72.9307C28.5645 72.9393 28.5405 72.955 28.5137 72.9621C28.3243 73.0126 28.1252 73.0126 27.9357 72.9621C27.9047 72.9535 27.8765 72.9364 27.8469 72.925C27.7849 72.9021 27.72 72.8821 27.6608 72.8478L0.566722 57.0444C0.394601 56.9442 0.251586 56.7998 0.152091 56.6258C0.0525957 56.4518 0.000136379 56.2543 0 56.0532V9.04548C0 8.94266 0.0140976 8.84269 0.0394732 8.74558C0.0479317 8.71273 0.0676683 8.68274 0.0789463 8.6499C0.100093 8.58992 0.119829 8.52851 0.150844 8.47281C0.17199 8.43568 0.203005 8.40569 0.22838 8.37141C0.260805 8.32571 0.29041 8.27859 0.328473 8.2386C0.360897 8.20575 0.40319 8.18147 0.439844 8.15291C0.480727 8.11864 0.51738 8.08151 0.563902 8.05437H0.565312L14.1131 0.152624C14.2846 0.0526285 14.4791 0 14.677 0C14.8749 0 15.0693 0.0526285 15.2409 0.152624L28.7886 8.05437H28.7914C28.8365 8.08293 28.8746 8.11864 28.9155 8.15148C28.9522 8.18005 28.993 8.20575 29.0255 8.23717C29.0649 8.27859 29.0931 8.32571 29.127 8.37141C29.1509 8.40569 29.1833 8.43568 29.2031 8.47281C29.2355 8.52993 29.2538 8.58992 29.2764 8.6499C29.2877 8.68274 29.3074 8.71273 29.3159 8.74701C29.3418 8.84433 29.3551 8.94467 29.3553 9.04548V38.4061L40.6447 31.821V16.8116C40.6447 16.7116 40.6588 16.6102 40.6841 16.5145C40.694 16.4802 40.7123 16.4502 40.7236 16.4174C40.7462 16.3574 40.7659 16.296 40.7969 16.2403C40.8181 16.2032 40.8491 16.1732 40.873 16.1389C40.9069 16.0932 40.9351 16.0461 40.9745 16.0061C41.007 15.9733 41.0479 15.949 41.0845 15.9204C41.1268 15.8861 41.1635 15.849 41.2086 15.8219H41.21L54.7591 7.92013C54.9306 7.82 55.1251 7.76729 55.323 7.76729C55.521 7.76729 55.7154 7.82 55.8869 7.92013L69.4347 15.8219C69.4826 15.8504 69.5193 15.8861 69.5616 15.919C69.5968 15.9476 69.6377 15.9733 69.6701 16.0047C69.7096 16.0461 69.7378 16.0932 69.7716 16.1389C69.797 16.1732 69.828 16.2032 69.8477 16.2403C69.8802 16.296 69.8985 16.3574 69.9211 16.4174C69.9337 16.4502 69.9521 16.4802 69.9605 16.5145ZM67.7416 31.821V18.7909L56.4508 25.3759V38.4061L67.743 31.821H67.7416ZM54.1938 55.392V42.3534L29.3539 56.7173V69.8788L54.1938 55.392ZM2.25843 11.0234V55.392L27.0955 69.8774V56.7187L14.1201 49.2797L14.1159 49.2768L14.1102 49.274C14.0665 49.2483 14.0299 49.2112 13.989 49.1797C13.9538 49.1512 13.9129 49.1283 13.8819 49.0969L13.879 49.0926C13.8424 49.0569 13.817 49.0126 13.786 48.9727C13.7578 48.9341 13.724 48.9013 13.7014 48.8613L13.7 48.857C13.6746 48.8141 13.6591 48.7627 13.6408 48.7142C13.6225 48.6713 13.5985 48.6313 13.5872 48.5856V48.5842C13.5731 48.5299 13.5703 48.4728 13.5647 48.4171C13.559 48.3743 13.5478 48.3314 13.5478 48.2886V17.6084L2.25843 11.0248V11.0234ZM14.6784 2.46331L3.39046 9.04548L14.6756 15.6277L25.9621 9.04405L14.6756 2.46331H14.6784ZM27.0969 39.7228V11.0234L15.8062 17.6084V46.3078L27.0969 39.7228ZM55.323 10.2308L44.0365 16.813L55.323 23.3952L66.6081 16.8116L55.323 10.2308ZM54.1938 25.3759L42.9031 18.7909V31.821L54.1938 38.4061V25.3759ZM28.2233 54.7394L53.0533 40.3811L41.7753 33.8032L16.9551 48.2786L28.2233 54.7394Z" fill="#FF2D20"/>
</svg>
