<svg width="109" height="21" viewBox="0 0 109 21" fill="none" xmlns="http://www.w3.org/2000/svg">
<path d="M9.39501 20.2701C14.363 20.2701 18.44 16.3551 18.44 10.5501C18.44 4.74508 14.363 0.830078 9.39501 0.830078C4.42701 0.830078 0.350006 4.74508 0.350006 10.5501C0.350006 16.3551 4.42701 20.2701 9.39501 20.2701ZM9.39501 18.2451C5.61501 18.2451 2.51001 15.1671 2.51001 10.5501C2.51001 5.93308 5.61501 2.85508 9.39501 2.85508C13.175 2.85508 16.28 5.93308 16.28 10.5501C16.28 15.1671 13.175 18.2451 9.39501 18.2451Z" fill="#222222"/>
<path d="M21.6674 20.0001H23.6924V11.3601C23.6924 9.44308 24.7453 8.39008 26.6623 8.39008H28.6873V6.50008H26.3923C24.9073 6.50008 24.3673 7.06708 23.8274 7.85008H23.6924L23.4223 6.50008H21.6674V20.0001Z" fill="#222222"/>
<path d="M30.9781 20.0001H32.7331L33.0031 18.1101H33.1381C34.2181 19.4871 35.5411 20.2701 37.4581 20.2701C40.9951 20.2701 43.6681 17.4351 43.6681 13.2501C43.6681 9.06508 40.9951 6.23008 37.4581 6.23008C35.5411 6.23008 34.2181 7.01308 33.1381 8.39008H33.0031V1.10008H30.9781V20.0001ZM37.3231 18.3801C35.0281 18.3801 33.0031 16.3551 33.0031 13.2501C33.0031 10.1451 35.0281 8.12008 37.3231 8.12008C39.6181 8.12008 41.6431 10.1451 41.6431 13.2501C41.6431 16.3551 39.6181 18.3801 37.3231 18.3801Z" fill="#222222"/>
<path d="M46.7721 20.0001H48.7971V6.50008H46.7721V20.0001ZM46.6371 3.66508H48.9321V1.37008H46.6371V3.66508Z" fill="#222222"/>
<path d="M53.6465 17.7051C53.6465 19.0821 54.5645 20.0001 56.0765 20.0001H58.7765V18.1101H56.4815C55.9415 18.1101 55.6715 17.8401 55.6715 17.3001V8.39008H58.7765V6.50008H55.6715V2.72008H53.6465V6.50008H51.4865V8.39008H53.6465V17.7051Z" fill="#222222"/>
<path d="M61.2023 14.4651C61.2023 17.5701 63.9023 20.2701 68.3573 20.2701C72.8123 20.2701 75.2423 17.9751 75.2423 14.8701C75.2423 12.0351 73.6223 10.4151 69.8423 9.74008L66.8723 9.20008C64.7123 8.79508 63.7673 7.74208 63.7673 6.23008C63.7673 4.31308 65.2523 2.85508 68.0873 2.85508C71.1923 2.85508 72.9473 4.61008 72.9473 6.63508H75.1073C75.1073 3.39508 72.4073 0.830078 68.0873 0.830078C64.0643 0.830078 61.6073 3.12508 61.6073 6.23008C61.6073 8.93008 63.1733 10.5231 66.1973 11.0901L69.8423 11.7651C72.0023 12.1701 73.0823 13.2231 73.0823 14.8701C73.0823 16.7601 71.7053 18.2451 68.3573 18.2451C65.1173 18.2451 63.3623 16.4901 63.3623 14.4651H61.2023Z" fill="#222222"/>
<path d="M84.1586 20.2701C87.8036 20.2701 90.6386 17.4351 90.6386 13.2501C90.6386 9.06508 87.8036 6.23008 84.1586 6.23008C80.5136 6.23008 77.6786 9.06508 77.6786 13.2501C77.6786 17.4351 80.5136 20.2701 84.1586 20.2701ZM84.1586 18.3801C81.7016 18.3801 79.7036 16.3551 79.7036 13.2501C79.7036 10.1451 81.7016 8.12008 84.1586 8.12008C86.6156 8.12008 88.6136 10.1451 88.6136 13.2501C88.6136 16.3551 86.6156 18.3801 84.1586 18.3801Z" fill="#222222"/>
<path d="M94.542 20.0001H96.567V8.39008H99.402V6.50008H96.567V4.34008C96.567 3.80008 96.837 3.53008 97.377 3.53008H99.402V1.64008H96.972C95.46 1.64008 94.542 2.55808 94.542 3.93508V6.50008H92.382V8.39008H94.542V20.0001Z" fill="#222222"/>
<path d="M102.9 17.7051C102.9 19.0821 103.818 20.0001 105.33 20.0001H108.03V18.1101H105.735C105.195 18.1101 104.925 17.8401 104.925 17.3001V8.39008H108.03V6.50008H104.925V2.72008H102.9V6.50008H100.74V8.39008H102.9V17.7051Z" fill="#222222"/>
</svg>
