<svg width="122" height="75" viewBox="0 0 122 75" fill="none" xmlns="http://www.w3.org/2000/svg">
<g clip-path="url(#clip0_1534_3139)">
<path d="M60.2999 75.0003C59.8972 75.0003 59.4973 74.8942 59.1443 74.6902L55.4662 72.5044C54.9168 72.196 55.1849 72.0869 55.3661 72.0241C56.0986 71.7667 56.2472 71.7085 57.0291 71.2628C57.1112 71.2158 57.2188 71.2324 57.3029 71.2822L60.1286 72.9653C60.2307 73.0207 60.3755 73.0207 60.47 72.9653L71.4877 66.5817C71.5898 66.5236 71.656 66.4046 71.656 66.2828V53.5211C71.656 53.3938 71.5898 53.2803 71.4855 53.2166L60.4723 46.8386C60.3702 46.7777 60.2351 46.7777 60.133 46.8386L49.122 53.2166C49.0152 53.2775 48.9474 53.3966 48.9474 53.5184V66.28C48.9474 66.4018 49.0136 66.5181 49.1184 66.5762L52.1355 68.3257C53.7737 69.1479 54.7748 68.179 54.7748 67.2046V54.609C54.7748 54.4291 54.9154 54.2907 55.0947 54.2907H56.4902C56.6639 54.2907 56.8073 54.4291 56.8073 54.609V67.2101C56.8073 69.4026 55.6159 70.6621 53.5448 70.6621C52.9077 70.6621 52.4058 70.6621 51.0048 69.9701L48.1145 68.298C47.4002 67.8828 46.959 67.1077 46.959 66.28V53.5184C46.959 52.6879 47.4002 51.9128 48.1145 51.5031L59.1432 45.1167C59.841 44.7209 60.7676 44.7209 61.4598 45.1167L72.4748 51.5058C73.1863 51.9183 73.6303 52.6907 73.6303 53.5211V66.2828C73.6303 67.1105 73.1863 67.8828 72.4748 68.298L61.4598 74.6844C61.1068 74.8892 60.7069 74.9944 60.2988 74.9944" fill="#689F63"/>
<path d="M63.7031 66.2067C58.8823 66.2067 57.8716 63.9854 57.8716 62.1224C57.8716 61.9452 58.0139 61.804 58.1907 61.804H59.6137C59.7709 61.804 59.9033 61.9189 59.9281 62.0748C60.1432 63.5303 60.7831 64.2645 63.6981 64.2645C66.0202 64.2645 67.0076 63.7379 67.0076 62.5019C67.0076 61.7905 66.7263 61.2617 63.119 60.9074C60.1019 60.6084 58.2376 59.9413 58.2376 57.5191C58.2376 55.2878 60.1129 53.9591 63.2541 53.9591C66.7814 53.9591 68.5299 55.1882 68.7505 57.8291C68.7588 57.9205 68.7257 58.009 68.665 58.0755C68.6044 58.1391 68.5189 58.1779 68.4306 58.1779H66.9993C66.8504 58.1779 66.7207 58.0727 66.6904 57.9288C66.3457 56.3979 65.5128 55.9079 63.2486 55.9079C60.7141 55.9079 60.419 56.7938 60.419 57.4582C60.419 58.2637 60.7665 58.499 64.1863 58.953C67.5729 59.4042 69.1808 60.0409 69.1808 62.4299C69.1808 64.8383 67.1785 66.2197 63.6871 66.2197L63.7031 66.2067ZM77.1068 52.6857H77.4764C77.7798 52.6857 77.8377 52.4725 77.8377 52.348C77.8377 52.0213 77.6143 52.0213 77.4902 52.0213H77.1096L77.1068 52.6857ZM76.6573 51.6393H77.4764C77.7577 51.6393 78.3093 51.6393 78.3093 52.2704C78.3093 52.7106 78.028 52.802 77.8597 52.8573C78.1879 52.8795 78.21 53.0954 78.2541 53.3999C78.2762 53.5909 78.312 53.9203 78.3782 54.0311H77.8735C77.8597 53.9203 77.7825 53.3113 77.7825 53.2781C77.7494 53.1424 77.7026 53.076 77.5343 53.076H77.1179V54.0338H76.6573V51.6393ZM75.6728 52.8296C75.6728 53.8207 76.4698 54.6235 77.4488 54.6235C78.4361 54.6235 79.2332 53.8041 79.2332 52.8296C79.2332 51.8358 78.4251 51.0469 77.4461 51.0469C76.4808 51.0469 75.67 51.8248 75.67 52.8269L75.6728 52.8296ZM79.5751 52.8352C79.5751 54.0089 78.6182 54.9667 77.4516 54.9667C76.2933 54.9667 75.328 54.02 75.328 52.8352C75.328 51.6282 76.3153 50.7036 77.4516 50.7036C78.5961 50.7036 79.5724 51.631 79.5724 52.8352" fill="#689F63"/>
<path fill-rule="evenodd" clip-rule="evenodd" d="M26.1821 25.0665C26.1821 24.5571 25.9146 24.0893 25.4766 23.836L13.7954 17.0897C13.5982 16.9735 13.3773 16.9126 13.1534 16.9043H13.0326C12.8086 16.9126 12.5877 16.9735 12.3872 17.0897L0.706565 23.836C0.271374 24.0907 0 24.5585 0 25.0679L0.0256481 43.2387C0.0256481 43.4906 0.155268 43.7259 0.375897 43.8504C0.591011 43.9833 0.861281 43.9833 1.07639 43.8504L8.0207 39.8586C8.4592 39.5968 8.72671 39.1339 8.72671 38.6295V30.1407C8.72671 29.6341 8.99423 29.1663 9.43135 28.9143L12.3878 27.2052C12.6073 27.0779 12.8483 27.0148 13.0938 27.0148C13.3354 27.0148 13.5819 27.0773 13.7954 27.2049L16.7504 28.9135C17.1878 29.1654 17.4565 29.6333 17.4565 30.1398V38.6281C17.4565 39.132 17.7276 39.597 18.1639 39.8572L25.1037 43.8463C25.3216 43.9764 25.5927 43.9764 25.8098 43.8463C26.0238 43.7217 26.1595 43.4864 26.1595 43.2345L26.1821 25.0665ZM81.303 34.5272C81.303 34.6538 81.236 34.7709 81.1265 34.8334L77.1143 37.1549C77.0054 37.2177 76.8708 37.2177 76.7621 37.1549L72.7495 34.8334C72.6391 34.7706 72.5729 34.6535 72.5729 34.5272V29.8777C72.5729 29.7509 72.6391 29.6341 72.7467 29.5704L76.7566 27.2451C76.8669 27.1814 77.0021 27.1814 77.1124 27.2451L81.1251 29.5704C81.2354 29.6341 81.3016 29.7509 81.3016 29.8777L81.303 34.5272ZM82.3868 0.0896315C82.1678 -0.0327253 81.9014 -0.0294034 81.6852 0.0971058C81.4701 0.224445 81.3372 0.456979 81.3372 0.70889V18.7025C81.3372 18.8797 81.2434 19.043 81.0906 19.1316C80.9389 19.2202 80.75 19.2202 80.597 19.1316L77.6709 17.4399C77.2351 17.1869 76.6984 17.1869 76.261 17.4399L64.576 24.2091C64.1394 24.4611 63.8699 24.9289 63.8699 25.4327V38.975C63.8699 39.4816 64.1394 39.9467 64.576 40.2013L76.261 46.9753C76.6973 47.2272 77.2346 47.2272 77.6722 46.9753L89.3573 40.1986C89.7931 39.9439 90.0633 39.4788 90.0633 38.9722V5.2217C90.0633 4.70791 89.7848 4.23537 89.338 3.98429L82.3868 0.0896315ZM121.298 29.7553C121.732 29.5023 122 29.035 122 28.5312V25.2492C122 24.7442 121.732 24.2783 121.297 24.0242L109.687 17.2586C109.248 17.0039 108.71 17.0039 108.272 17.2586L96.5895 24.027C96.151 24.2817 95.8835 24.7467 95.8835 25.2533V38.7901C95.8835 39.2994 96.1566 39.77 96.5951 40.022L108.203 46.663C108.63 46.9094 109.154 46.9121 109.587 46.6713L116.609 42.7542C116.83 42.6297 116.97 42.3943 116.97 42.1397C116.97 41.885 116.835 41.6469 116.614 41.5223L104.86 34.7512C104.64 34.6266 104.505 34.3913 104.505 34.1394V29.8929C104.505 29.6393 104.637 29.4057 104.858 29.2795L108.515 27.1618C108.732 27.0344 109 27.0344 109.218 27.1618L112.877 29.2795C113.095 29.404 113.23 29.6393 113.23 29.8913V33.2298C113.23 33.4817 113.366 33.717 113.584 33.8443C113.801 33.9689 114.072 33.9689 114.29 33.8416L121.298 29.7553Z" fill="#333333"/>
<path fill-rule="evenodd" clip-rule="evenodd" d="M108.808 29.122C108.891 29.073 108.995 29.073 109.079 29.122L111.321 30.4203C111.405 30.469 111.456 30.5587 111.456 30.6556V33.255C111.456 33.3518 111.405 33.4415 111.321 33.4903L109.079 34.7886C108.995 34.8376 108.891 34.8376 108.808 34.7886L106.568 33.4903C106.482 33.4415 106.43 33.3518 106.43 33.255V30.6556C106.43 30.5587 106.479 30.469 106.565 30.4203L108.808 29.122Z" fill="#689F63"/>
<path d="M69.7898 22.9149L37.0498 6.8064L20.2627 41.1809L53.0019 57.2902L69.7898 22.9149Z" fill="url(#paint0_linear_1534_3139)"/>
<path d="M18.1372 27.6792L41.255 59.0858L71.8287 36.4122L48.7095 5.00635L18.1372 27.6792Z" fill="url(#paint1_linear_1534_3139)"/>
<path d="M32.7397 17.1404V46.8797H58.0247V17.1404H32.7397Z" fill="url(#paint2_linear_1534_3139)"/>
</g>
<defs>
<linearGradient id="paint0_linear_1534_3139" x1="53.41" y1="14.8353" x2="36.522" y2="49.1573" gradientUnits="userSpaceOnUse">
<stop offset="0.3" stop-color="#3E863D"/>
<stop offset="0.5" stop-color="#55934F"/>
<stop offset="0.8" stop-color="#5AAD45"/>
</linearGradient>
<linearGradient id="paint1_linear_1534_3139" x1="29.8347" y1="43.5625" x2="60.4906" y2="20.9964" gradientUnits="userSpaceOnUse">
<stop offset="0.57" stop-color="#3E863D"/>
<stop offset="0.72" stop-color="#619857"/>
<stop offset="1" stop-color="#76AC64"/>
</linearGradient>
<linearGradient id="paint2_linear_1534_3139" x1="32.7483" y1="32.0109" x2="58.0294" y2="32.0109" gradientUnits="userSpaceOnUse">
<stop offset="0.16" stop-color="#6BBF47"/>
<stop offset="0.38" stop-color="#79B461"/>
<stop offset="0.47" stop-color="#75AC64"/>
<stop offset="0.7" stop-color="#659E5A"/>
<stop offset="0.9" stop-color="#3E863D"/>
</linearGradient>
<clipPath id="clip0_1534_3139">
<rect width="122" height="75" fill="white"/>
</clipPath>
</defs>
</svg>
