<svg width="80" height="80" viewBox="0 0 80 80" fill="none" xmlns="http://www.w3.org/2000/svg">
<path d="M10.995 10.6499H80V58.2332L68.8333 69.3499H0V21.6099L10.995 10.6499Z" fill="#41CD52"/>
<path d="M21.1899 22.9835C23.8099 21.2501 27.0499 20.8118 30.1299 20.8401C33.0632 20.8768 36.1416 21.3901 38.5732 23.1401C40.3399 24.3818 41.4899 26.2985 42.2532 28.2818C43.4916 31.5368 43.8533 35.0518 43.8966 38.5118C43.9016 42.0118 43.7299 45.5551 42.5916 48.8751C41.8161 51.1477 40.3544 53.1236 38.4082 54.5301L42.6249 61.2968L37.3666 63.7251L32.8666 56.3251C30.8382 56.6585 28.7666 56.6318 26.7266 56.4085C24.2849 56.1151 21.7966 55.3718 19.9132 53.7285C18.4632 52.4751 17.5566 50.7201 16.9349 48.9368C15.9349 45.9368 15.6432 42.7101 15.5966 39.5451C15.5716 36.1235 15.7899 32.6485 16.8232 29.3651C17.6232 26.8951 18.9432 24.4318 21.1566 22.9818L21.1899 22.9835ZM50.9333 22.8735H56.4399L56.4433 30.1568L63.4816 30.1585L63.3533 34.8851C61.0083 34.8901 58.6666 34.8835 56.3199 34.8885L56.3283 46.8268C56.3733 47.9168 56.3483 49.0651 56.8283 50.0718C57.1616 50.8468 58.1199 51.0468 58.8866 51.0718L63.2232 50.9551L63.4799 55.3001C60.6033 55.8001 57.5849 56.3618 54.7299 55.4585C53.5266 55.1018 52.4049 54.3035 51.9166 53.1135C51.0416 51.0885 50.9716 48.8368 50.9166 46.6635V34.8885C49.6366 34.8851 48.3566 34.8901 47.0783 34.8851V30.1601L50.9149 30.1568L50.9183 22.8735H50.9333Z" fill="white"/>
<path d="M27.7935 25.8167C29.5768 25.5834 31.4435 25.6467 33.1318 26.32C34.5154 26.8624 35.639 27.9138 36.2718 29.2584C37.2118 31.2917 37.5718 33.5317 37.7552 35.7467C37.9518 38.6934 37.9252 41.6684 37.5185 44.5967C37.2352 46.34 36.8252 48.18 35.6452 49.5534C34.4452 50.9334 32.5985 51.525 30.8285 51.6634C28.9585 51.8 26.9868 51.6634 25.2985 50.78C24.3006 50.2566 23.4925 49.4328 22.9885 48.425C22.3968 47.2184 22.0718 45.9 21.8418 44.5817C21.1518 40.415 20.9868 36.0684 21.9285 31.91C22.3168 30.3434 22.8785 28.73 24.0285 27.5484C25.0252 26.535 26.4152 26.0117 27.8002 25.815L27.7935 25.8167Z" fill="#41CD52"/>
</svg>
