<svg width="80" height="72" viewBox="0 0 80 72" fill="none" xmlns="http://www.w3.org/2000/svg">
<path d="M80 36.0081C80 30.6595 73.3632 25.5907 63.1879 22.4474C65.5361 11.9806 64.4925 3.65321 59.894 0.987134C58.8341 0.361759 57.5948 0.0655293 56.2413 0.0655293V3.73549C56.9914 3.73549 57.5948 3.88361 58.1003 4.16338C60.318 5.44705 61.2801 10.3348 60.53 16.6215C60.3506 18.1685 60.0571 19.7978 59.6983 21.4599C56.5022 20.67 53.0126 20.0611 49.3437 19.6661C47.1423 16.6215 44.8594 13.8567 42.5601 11.4375C47.8761 6.45094 52.8659 3.71904 56.2576 3.71904V0.0490723C51.7733 0.0490723 45.903 3.27469 39.9674 8.87015C34.0318 3.30761 28.1614 0.114901 23.6771 0.114901V3.78486C27.0526 3.78486 32.0587 6.50031 37.3746 11.4539C35.0917 13.8732 32.8088 16.6215 30.64 19.6661C26.9548 20.0611 23.4651 20.67 20.2691 21.4764C19.894 19.8307 19.6168 18.2343 19.4211 16.7038C18.6547 10.4171 19.6005 5.52933 21.8019 4.22921C22.2911 3.93298 22.927 3.80132 23.6771 3.80132V0.131358C22.3074 0.131358 21.0681 0.427588 19.9918 1.05296C15.4097 3.71904 14.3824 12.0299 16.7468 22.4638C6.60416 25.6236 0 30.676 0 36.0081C0 41.3567 6.63677 46.4256 16.8121 49.5689C14.4639 60.0357 15.5075 68.3631 20.106 71.0291C21.1659 71.6545 22.4052 71.9507 23.775 71.9507C28.2593 71.9507 34.1296 68.7251 40.0652 63.1297C46.0008 68.6922 51.8712 71.8849 56.3555 71.8849C57.7252 71.8849 58.9645 71.5887 60.0408 70.9633C64.6229 68.2972 65.6502 59.9863 63.2858 49.5524C73.3958 46.4091 80 41.3403 80 36.0081ZM58.7689 25.0312C58.1655 27.1541 57.4154 29.343 56.5675 31.5318C55.8989 30.2152 55.1977 28.8986 54.4313 27.582C53.6812 26.2655 52.8822 24.9818 52.0832 23.731C54.3987 24.0766 56.6327 24.5045 58.7689 25.0312ZM51.3004 42.5581C50.0285 44.7798 48.724 46.8864 47.3706 48.8448C44.9409 49.0587 42.4786 49.1739 40 49.1739C37.5377 49.1739 35.0754 49.0587 32.662 48.8612C31.3086 46.9028 29.9878 44.8128 28.7159 42.6075C27.4766 40.4516 26.3514 38.2628 25.3241 36.0575C26.3351 33.8522 27.4766 31.647 28.6996 29.4911C29.9715 27.2693 31.276 25.1628 32.6294 23.2044C35.0591 22.9905 37.5214 22.8753 40 22.8753C42.4623 22.8753 44.9246 22.9905 47.338 23.1879C48.6914 25.1464 50.0122 27.2364 51.2841 29.4417C52.5234 31.5976 53.6486 33.7864 54.6759 35.9917C53.6486 38.1969 52.5234 40.4022 51.3004 42.5581ZM56.5675 40.4187C57.448 42.6239 58.1981 44.8292 58.8178 46.9687C56.6816 47.4953 54.4313 47.9396 52.0995 48.2852C52.8985 47.018 53.6975 45.7179 54.4476 44.3849C55.1977 43.0683 55.8989 41.7353 56.5675 40.4187ZM40.0326 57.9785C38.5161 56.3987 36.9996 54.6377 35.4994 52.7122C36.967 52.7781 38.4672 52.8274 39.9837 52.8274C41.5165 52.8274 43.033 52.7945 44.5169 52.7122C43.0493 54.6377 41.5328 56.3987 40.0326 57.9785ZM27.9005 48.2852C25.585 47.9396 23.351 47.5117 21.2148 46.9851C21.8182 44.8621 22.5683 42.6733 23.4162 40.4845C24.0848 41.8011 24.786 43.1177 25.5524 44.4342C26.3188 45.7508 27.1015 47.0345 27.9005 48.2852ZM39.9511 14.0377C41.4676 15.6176 42.9841 17.3785 44.4843 19.304C43.0167 19.2382 41.5165 19.1888 40 19.1888C38.4672 19.1888 36.9507 19.2218 35.4668 19.304C36.9344 17.3785 38.4509 15.6176 39.9511 14.0377ZM27.8842 23.731C27.0852 24.9982 26.2862 26.2984 25.5361 27.6314C24.786 28.948 24.0848 30.2646 23.4162 31.5811C22.5357 29.3759 21.7856 27.1706 21.1659 25.0312C23.3021 24.521 25.5524 24.0766 27.8842 23.731ZM13.1268 44.3355C7.35426 41.8505 3.62006 38.5919 3.62006 36.0081C3.62006 33.4244 7.35426 30.1494 13.1268 27.6808C14.5292 27.0719 16.062 26.5288 17.6437 26.0186C18.5732 29.2442 19.7962 32.6015 21.3127 36.0411C19.8125 39.4642 18.6058 42.805 17.6926 46.0141C16.0783 45.504 14.5455 44.9444 13.1268 44.3355ZM21.8997 67.8529C19.682 66.5692 18.7199 61.6814 19.47 55.3948C19.6494 53.8478 19.9429 52.2185 20.3017 50.5563C23.4978 51.3463 26.9874 51.9552 30.6563 52.3502C32.8577 55.3948 35.1406 58.1596 37.4399 60.5788C32.1239 65.5653 27.1341 68.2972 23.7424 68.2972C23.0086 68.2808 22.3889 68.1327 21.8997 67.8529ZM60.5789 55.3125C61.3453 61.5991 60.3995 66.4869 58.1981 67.7871C57.7089 68.0833 57.073 68.215 56.3229 68.215C52.9474 68.215 47.9413 65.4995 42.6254 60.5459C44.9083 58.1267 47.1912 55.3783 49.36 52.3337C53.0453 51.9387 56.5349 51.3298 59.7309 50.5234C60.106 52.1856 60.3995 53.782 60.5789 55.3125ZM66.8569 44.3355C65.4546 44.9444 63.9217 45.4875 62.34 45.9977C61.4105 42.7721 60.1875 39.4148 58.671 35.9752C60.1712 32.5521 61.3779 29.2113 62.2911 26.0021C63.9054 26.5123 65.4382 27.0719 66.8732 27.6808C72.6457 30.1658 76.3799 33.4244 76.3799 36.0081C76.3636 38.5919 72.6294 41.8669 66.8569 44.3355Z" fill="#61DAFB"/>
<path d="M39.9838 43.5292C44.0995 43.5292 47.4359 40.162 47.4359 36.0083C47.4359 31.8545 44.0995 28.4873 39.9838 28.4873C35.8682 28.4873 32.5317 31.8545 32.5317 36.0083C32.5317 40.162 35.8682 43.5292 39.9838 43.5292Z" fill="#61DAFB"/>
</svg>
