<svg width="76" height="76" viewBox="0 0 76 76" fill="none" xmlns="http://www.w3.org/2000/svg">
<path d="M16.8856 0H58.966C61.0137 0 63.002 0.326562 64.9309 1.00937C67.7204 2.01875 70.2429 3.8 72.1421 6.11562C74.0711 8.43125 75.3471 11.2812 75.7923 14.25C75.9703 15.3484 76 16.4469 76 17.5453V58.6031C76 59.9094 75.9407 61.2453 75.6736 62.5219C75.08 65.4609 73.6853 68.2219 71.6673 70.4484C69.679 72.675 67.0676 74.3375 64.2483 75.2281C62.5271 75.7625 60.7466 76 58.9364 76C58.1351 76 16.7669 76 16.1437 75.9703C13.1168 75.8219 10.1195 74.8422 7.59704 73.15C5.13394 71.4875 3.11597 69.1719 1.81023 66.5C0.68255 64.2141 0.118707 61.6609 0.118707 59.1078V16.8922C0.0593555 14.3688 0.593522 11.875 1.69153 9.61875C2.96759 6.94688 4.95588 4.60156 7.41898 2.93906C9.94143 1.21719 12.909 0.207813 15.936 0.059375C16.2327 0 16.5592 0 16.8856 0Z" fill="url(#paint0_linear_1534_3083)"/>
<path d="M64.1 62.1656C63.8329 61.75 63.5361 61.3344 63.2097 60.9484C62.4678 60.0578 61.6072 59.2859 60.6576 58.6328C59.4705 57.8312 58.0758 57.3266 56.6513 57.2672C55.6423 57.2078 54.6334 57.3859 53.6837 57.7422C52.7341 58.0688 51.8141 58.5438 50.9239 59.0187C49.8852 59.5531 48.8465 60.0875 47.7485 60.5328C46.4428 61.0672 45.0777 61.4828 43.6829 61.7797C41.9321 62.1063 40.1515 62.225 38.4006 62.1953C35.2253 62.1359 32.05 61.6609 29.023 60.7703C26.3522 59.9688 23.8001 58.8703 21.3963 57.475C19.2893 56.2578 17.3307 54.8625 15.4908 53.2891C13.9774 51.9828 12.5826 50.5875 11.2768 49.1031C10.3866 48.0641 9.52597 46.9656 8.72472 45.8375C8.39828 45.3922 8.10152 44.9172 7.83444 44.4422L0 35.9813V16.8328C0 7.54063 7.50801 0 16.7966 0H31.7829L42.8817 11.2812C67.9282 28.3219 59.8266 47.1141 59.8266 47.1141C59.8266 47.1141 66.9489 55.1297 64.1 62.1656Z" fill="url(#paint1_linear_1534_3083)"/>
<path d="M42.941 11.2812C67.9875 28.3219 59.886 47.1141 59.886 47.1141C59.886 47.1141 67.0082 55.1594 64.1296 62.1953C64.1296 62.1953 61.1917 57.2672 56.2655 57.2672C51.5174 57.2672 48.7278 62.1953 39.1722 62.1953C17.8946 62.1953 7.83444 44.4125 7.83444 44.4125C27.0051 57.0297 40.0922 48.0938 40.0922 48.0938C31.4565 43.0766 13.0871 19.0891 13.0871 19.0891C29.0824 32.7156 35.9969 36.3078 35.9969 36.3078C31.8719 32.8937 20.2983 16.2094 20.2983 16.2094C29.5572 25.5906 47.9563 38.6828 47.9563 38.6828C53.1792 24.1953 42.941 11.2812 42.941 11.2812Z" fill="white"/>
<defs>
<linearGradient id="paint0_linear_1534_3083" x1="45.1474" y1="-2.71195" x2="30.8034" y2="78.7266" gradientUnits="userSpaceOnUse">
<stop stop-color="#FAAE42"/>
<stop offset="1" stop-color="#EF3E31"/>
</linearGradient>
<linearGradient id="paint1_linear_1534_3083" x1="45.4788" y1="1.50031" x2="32.136" y2="74.1367" gradientUnits="userSpaceOnUse">
<stop stop-color="#E39F3A"/>
<stop offset="1" stop-color="#D33929"/>
</linearGradient>
</defs>
</svg>
