<svg width="73" height="73" viewBox="0 0 73 73" fill="none" xmlns="http://www.w3.org/2000/svg">
<path d="M36.5 72.9429C56.6584 72.9429 73 56.6666 73 36.5889C73 16.5111 56.6584 0.234863 36.5 0.234863C16.3416 0.234863 0 16.5111 0 36.5889C0 56.6666 16.3416 72.9429 36.5 72.9429Z" fill="#1A171B"/>
<path d="M52.385 13.6678C48.6819 13.7964 45.45 15.8291 43.0441 18.6409C40.3802 21.7239 38.608 25.3806 37.331 29.1131C35.0469 27.2485 33.2847 24.8347 29.6201 23.7821C26.7877 22.9721 23.8126 23.3067 21.0768 25.3368C19.7808 26.3011 18.888 27.7586 18.4634 29.1287C17.3641 32.6894 19.6191 35.8582 20.6434 36.996L22.8827 39.3862C23.3444 39.8549 24.4562 41.0775 23.9127 42.8305C23.3253 44.7362 21.0184 45.9703 18.6521 45.2432C17.5954 44.9223 16.0772 44.1381 16.4171 43.0338C16.5577 42.5823 16.8822 42.2443 17.0561 41.8538C17.2158 41.5183 17.2919 41.2667 17.3404 41.119C17.7727 39.7131 17.1822 37.8841 15.6703 37.4197C14.2599 36.9891 12.8167 37.3302 12.2572 39.1391C11.6228 41.194 12.61 44.9234 17.8985 46.5474C24.0946 48.4435 29.3361 45.0833 30.0795 40.7007C30.5477 37.9556 29.3033 35.9164 27.0235 33.2935L25.166 31.2475C24.0407 30.1279 23.6544 28.2196 24.8189 26.7529C25.8016 25.5158 27.2011 24.9878 29.4932 25.6086C32.839 26.5135 34.3303 28.8257 36.8189 30.6905C35.7915 34.0473 35.1199 37.4166 34.512 40.4379L34.1415 42.6905C32.3627 51.9837 31.0048 57.0867 27.476 60.0163C26.7651 60.5198 25.7488 61.2736 24.217 61.3262C23.414 61.3509 23.1545 60.8007 23.1434 60.561C23.1243 59.9995 23.5993 59.7422 23.915 59.4894C24.3866 59.2332 25.0998 58.8084 25.0513 57.4471C25 55.8384 23.6621 54.4436 21.7281 54.5075C20.2795 54.5566 18.0716 55.9145 18.1545 58.3999C18.2409 60.9672 20.6434 62.8911 24.2654 62.7692C26.2017 62.7031 30.5252 61.918 34.7863 56.8731C39.7457 51.0899 41.1327 44.4602 42.1761 39.6078L43.3407 33.2015C43.9877 33.2788 44.6795 33.3302 45.432 33.3481C51.6088 33.4779 54.6985 30.2912 54.7444 27.9733C54.7749 26.5706 53.8202 25.1903 52.4837 25.2215C51.527 25.2485 50.325 25.8827 50.0364 27.2005C49.7547 28.4934 52.002 29.6601 50.2455 30.7933C48.9976 31.5977 46.7606 32.1646 43.6102 31.7039L44.183 28.5505C45.3522 22.5705 46.7942 15.2148 52.2647 15.0359C52.6633 15.0157 54.1222 15.0538 54.1561 16.0146C54.1661 16.3355 54.0862 16.4173 53.709 17.1521C53.3249 17.7249 53.18 18.2126 53.198 18.7729C53.2507 20.2998 54.4164 21.3032 56.1023 21.2427C58.3596 21.17 59.0089 18.9811 58.9718 17.857C58.8806 15.2156 56.0855 13.5471 52.3847 13.6678H52.385Z" fill="white"/>
</svg>
